<svg xmlns="http://www.w3.org/2000/svg" xmlns:xlink="http://www.w3.org/1999/xlink" width="500" zoomAndPan="magnify" viewBox="0 0 375 374.999991" height="500" preserveAspectRatio="xMidYMid meet" version="1.0"><defs><clipPath id="7570257070"><path d="M 38 39.125 L 337 39.125 L 337 336 L 38 336 Z M 38 39.125 " clip-rule="nonzero"/></clipPath></defs><g clip-path="url(#7570257070)"><path fill="#2160fd" d="M 241.925781 242.460938 L 241.925781 132.53125 L 133.074219 132.53125 L 133.074219 242.460938 Z M 255.847656 125.574219 L 255.847656 249.417969 C 255.847656 249.875 255.804688 250.328125 255.714844 250.777344 C 255.625 251.226562 255.492188 251.660156 255.316406 252.082031 C 255.144531 252.503906 254.929688 252.90625 254.675781 253.285156 C 254.421875 253.667969 254.132812 254.019531 253.808594 254.339844 C 253.484375 254.664062 253.132812 254.953125 252.753906 255.207031 C 252.371094 255.460938 251.972656 255.675781 251.546875 255.851562 C 251.125 256.023438 250.691406 256.15625 250.242188 256.246094 C 249.792969 256.335938 249.339844 256.378906 248.882812 256.378906 L 126.117188 256.378906 C 125.660156 256.378906 125.207031 256.335938 124.757812 256.246094 C 124.308594 256.15625 123.875 256.023438 123.453125 255.847656 C 123.03125 255.675781 122.628906 255.460938 122.25 255.207031 C 121.867188 254.953125 121.515625 254.664062 121.195312 254.339844 C 120.871094 254.015625 120.582031 253.664062 120.328125 253.285156 C 120.074219 252.90625 119.859375 252.503906 119.683594 252.082031 C 119.511719 251.660156 119.378906 251.222656 119.289062 250.777344 C 119.199219 250.328125 119.15625 249.875 119.152344 249.417969 L 119.152344 125.574219 C 119.15625 125.117188 119.199219 124.664062 119.289062 124.214844 C 119.378906 123.769531 119.511719 123.332031 119.683594 122.910156 C 119.859375 122.488281 120.074219 122.085938 120.328125 121.707031 C 120.582031 121.328125 120.871094 120.976562 121.195312 120.652344 C 121.515625 120.328125 121.867188 120.039062 122.25 119.785156 C 122.628906 119.53125 123.03125 119.316406 123.453125 119.144531 C 123.875 118.96875 124.308594 118.835938 124.757812 118.746094 C 125.207031 118.65625 125.660156 118.613281 126.117188 118.613281 L 248.882812 118.613281 C 249.339844 118.613281 249.792969 118.65625 250.242188 118.746094 C 250.691406 118.835938 251.125 118.96875 251.546875 119.144531 C 251.96875 119.316406 252.371094 119.53125 252.75 119.785156 C 253.132812 120.039062 253.484375 120.328125 253.804688 120.652344 C 254.128906 120.976562 254.417969 121.328125 254.671875 121.707031 C 254.925781 122.085938 255.140625 122.488281 255.316406 122.910156 C 255.488281 123.332031 255.621094 123.769531 255.710938 124.214844 C 255.800781 124.664062 255.84375 125.117188 255.847656 125.574219 Z M 265.238281 287.761719 L 109.761719 287.761719 C 109.007812 287.761719 108.253906 287.722656 107.503906 287.648438 C 106.75 287.574219 106.003906 287.460938 105.265625 287.3125 C 104.523438 287.164062 103.792969 286.980469 103.070312 286.761719 C 102.347656 286.542969 101.636719 286.289062 100.941406 286 C 100.242188 285.710938 99.5625 285.386719 98.894531 285.03125 C 98.230469 284.675781 97.582031 284.285156 96.957031 283.867188 C 96.328125 283.445312 95.722656 282.996094 95.136719 282.519531 C 94.554688 282.039062 93.996094 281.53125 93.460938 281 C 92.929688 280.464844 92.421875 279.90625 91.941406 279.324219 C 91.464844 278.738281 91.015625 278.132812 90.59375 277.503906 C 90.175781 276.878906 89.785156 276.230469 89.429688 275.566406 C 89.074219 274.898438 88.75 274.21875 88.460938 273.519531 C 88.171875 272.824219 87.917969 272.113281 87.699219 271.390625 C 87.480469 270.667969 87.296875 269.9375 87.148438 269.195312 C 87 268.457031 86.886719 267.710938 86.8125 266.957031 C 86.738281 266.207031 86.699219 265.453125 86.699219 264.699219 L 86.699219 110.292969 C 86.699219 109.539062 86.738281 108.785156 86.8125 108.035156 C 86.886719 107.28125 87 106.535156 87.148438 105.796875 C 87.296875 105.054688 87.480469 104.324219 87.699219 103.601562 C 87.917969 102.878906 88.171875 102.167969 88.460938 101.472656 C 88.75 100.773438 89.074219 100.09375 89.429688 99.425781 C 89.785156 98.761719 90.175781 98.113281 90.59375 97.488281 C 91.015625 96.859375 91.464844 96.253906 91.941406 95.667969 C 92.421875 95.085938 92.929688 94.527344 93.460938 93.992188 C 93.996094 93.460938 94.554688 92.953125 95.136719 92.472656 C 95.722656 91.996094 96.328125 91.546875 96.957031 91.125 C 97.582031 90.707031 98.230469 90.316406 98.894531 89.960938 C 99.5625 89.605469 100.242188 89.28125 100.941406 88.992188 C 101.636719 88.703125 102.347656 88.449219 103.070312 88.230469 C 103.792969 88.011719 104.523438 87.824219 105.265625 87.679688 C 106.003906 87.53125 106.75 87.417969 107.503906 87.34375 C 108.253906 87.269531 109.007812 87.230469 109.761719 87.230469 L 265.238281 87.230469 C 265.992188 87.230469 266.746094 87.269531 267.496094 87.34375 C 268.25 87.417969 268.996094 87.53125 269.734375 87.679688 C 270.476562 87.824219 271.207031 88.011719 271.929688 88.230469 C 272.652344 88.449219 273.363281 88.703125 274.058594 88.992188 C 274.757812 89.28125 275.4375 89.605469 276.105469 89.960938 C 276.769531 90.316406 277.417969 90.707031 278.042969 91.125 C 278.671875 91.546875 279.277344 91.996094 279.859375 92.472656 C 280.445312 92.953125 281.003906 93.460938 281.539062 93.992188 C 282.070312 94.527344 282.578125 95.085938 283.058594 95.667969 C 283.535156 96.253906 283.984375 96.859375 284.40625 97.488281 C 284.824219 98.113281 285.214844 98.761719 285.570312 99.425781 C 285.925781 100.09375 286.25 100.773438 286.539062 101.472656 C 286.828125 102.167969 287.082031 102.878906 287.300781 103.601562 C 287.519531 104.324219 287.703125 105.054688 287.851562 105.796875 C 288 106.535156 288.113281 107.28125 288.1875 108.035156 C 288.261719 108.785156 288.300781 109.539062 288.300781 110.292969 L 288.300781 264.699219 C 288.300781 265.453125 288.261719 266.207031 288.1875 266.957031 C 288.113281 267.710938 288 268.457031 287.851562 269.195312 C 287.703125 269.9375 287.519531 270.667969 287.300781 271.390625 C 287.082031 272.113281 286.828125 272.824219 286.539062 273.519531 C 286.25 274.21875 285.925781 274.898438 285.570312 275.566406 C 285.214844 276.230469 284.824219 276.878906 284.40625 277.503906 C 283.984375 278.132812 283.535156 278.738281 283.058594 279.324219 C 282.578125 279.90625 282.070312 280.464844 281.539062 281 C 281.003906 281.53125 280.445312 282.039062 279.859375 282.519531 C 279.277344 282.996094 278.671875 283.445312 278.042969 283.867188 C 277.417969 284.285156 276.769531 284.675781 276.105469 285.03125 C 275.4375 285.386719 274.757812 285.710938 274.058594 286 C 273.363281 286.289062 272.652344 286.542969 271.929688 286.761719 C 271.207031 286.980469 270.476562 287.164062 269.734375 287.3125 C 268.996094 287.460938 268.25 287.574219 267.496094 287.648438 C 266.746094 287.722656 265.992188 287.761719 265.238281 287.761719 Z M 302.222656 127.054688 L 302.222656 140.980469 L 329.035156 140.980469 C 329.5 140.988281 329.960938 140.953125 330.417969 140.871094 C 330.871094 140.789062 331.316406 140.664062 331.746094 140.492188 C 332.179688 140.324219 332.589844 140.113281 332.976562 139.859375 C 333.367188 139.605469 333.726562 139.320312 334.058594 138.996094 C 334.386719 138.671875 334.683594 138.316406 334.945312 137.933594 C 335.207031 137.550781 335.425781 137.144531 335.605469 136.71875 C 335.785156 136.289062 335.921875 135.847656 336.011719 135.394531 C 336.105469 134.941406 336.148438 134.480469 336.148438 134.019531 C 336.148438 133.554688 336.105469 133.097656 336.011719 132.640625 C 335.921875 132.1875 335.785156 131.746094 335.605469 131.320312 C 335.425781 130.890625 335.207031 130.488281 334.945312 130.101562 C 334.683594 129.71875 334.386719 129.367188 334.058594 129.042969 C 333.726562 128.71875 333.367188 128.429688 332.976562 128.175781 C 332.589844 127.925781 332.179688 127.714844 331.746094 127.542969 C 331.316406 127.375 330.871094 127.246094 330.417969 127.164062 C 329.960938 127.082031 329.5 127.046875 329.035156 127.058594 Z M 329.035156 162.710938 L 302.222656 162.710938 L 302.222656 176.628906 L 329.035156 176.628906 C 329.5 176.640625 329.960938 176.605469 330.417969 176.523438 C 330.871094 176.441406 331.316406 176.316406 331.746094 176.144531 C 332.179688 175.976562 332.589844 175.761719 332.976562 175.511719 C 333.367188 175.257812 333.726562 174.96875 334.058594 174.644531 C 334.386719 174.320312 334.683594 173.96875 334.945312 173.585938 C 335.207031 173.203125 335.425781 172.796875 335.605469 172.371094 C 335.785156 171.941406 335.921875 171.5 336.011719 171.046875 C 336.105469 170.59375 336.148438 170.132812 336.148438 169.671875 C 336.148438 169.207031 336.105469 168.746094 336.011719 168.292969 C 335.921875 167.839844 335.785156 167.398438 335.605469 166.972656 C 335.425781 166.542969 335.207031 166.136719 334.945312 165.753906 C 334.683594 165.371094 334.386719 165.019531 334.058594 164.695312 C 333.726562 164.371094 333.367188 164.082031 332.976562 163.828125 C 332.589844 163.578125 332.179688 163.367188 331.746094 163.195312 C 331.316406 163.023438 330.871094 162.898438 330.417969 162.816406 C 329.960938 162.734375 329.5 162.699219 329.035156 162.710938 Z M 329.035156 198.359375 L 302.222656 198.359375 L 302.222656 212.28125 L 329.035156 212.28125 C 329.5 212.292969 329.960938 212.257812 330.417969 212.175781 C 330.871094 212.09375 331.316406 211.96875 331.746094 211.796875 C 332.179688 211.625 332.589844 211.414062 332.976562 211.164062 C 333.367188 210.910156 333.726562 210.621094 334.058594 210.296875 C 334.386719 209.972656 334.683594 209.621094 334.945312 209.238281 C 335.207031 208.855469 335.425781 208.449219 335.605469 208.019531 C 335.785156 207.59375 335.921875 207.152344 336.011719 206.699219 C 336.105469 206.246094 336.148438 205.785156 336.148438 205.320312 C 336.148438 204.859375 336.105469 204.398438 336.011719 203.945312 C 335.921875 203.492188 335.785156 203.050781 335.605469 202.621094 C 335.425781 202.195312 335.207031 201.789062 334.945312 201.40625 C 334.683594 201.023438 334.386719 200.667969 334.058594 200.347656 C 333.726562 200.023438 333.367188 199.734375 332.976562 199.480469 C 332.589844 199.230469 332.179688 199.015625 331.746094 198.847656 C 331.316406 198.675781 330.871094 198.550781 330.417969 198.46875 C 329.960938 198.386719 329.5 198.351562 329.035156 198.359375 Z M 329.035156 234.011719 L 302.222656 234.011719 L 302.222656 247.933594 L 329.035156 247.933594 C 329.5 247.945312 329.960938 247.910156 330.417969 247.828125 C 330.871094 247.746094 331.316406 247.617188 331.746094 247.449219 C 332.179688 247.277344 332.589844 247.066406 332.976562 246.816406 C 333.367188 246.5625 333.726562 246.273438 334.058594 245.949219 C 334.386719 245.625 334.683594 245.273438 334.945312 244.890625 C 335.207031 244.503906 335.425781 244.101562 335.605469 243.671875 C 335.785156 243.246094 335.921875 242.804688 336.011719 242.351562 C 336.105469 241.894531 336.148438 241.4375 336.148438 240.972656 C 336.148438 240.511719 336.105469 240.050781 336.011719 239.597656 C 335.921875 239.140625 335.785156 238.703125 335.605469 238.273438 C 335.425781 237.847656 335.207031 237.441406 334.945312 237.058594 C 334.683594 236.675781 334.386719 236.320312 334.058594 235.996094 C 333.726562 235.671875 333.367188 235.386719 332.976562 235.132812 C 332.589844 234.878906 332.179688 234.667969 331.746094 234.5 C 331.316406 234.328125 330.871094 234.203125 330.417969 234.121094 C 329.960938 234.039062 329.5 234.003906 329.035156 234.011719 Z M 72.777344 127.054688 L 45.964844 127.054688 C 45.507812 127.054688 45.054688 127.097656 44.605469 127.1875 C 44.15625 127.277344 43.722656 127.410156 43.296875 127.585938 C 42.875 127.757812 42.476562 127.972656 42.09375 128.226562 C 41.714844 128.480469 41.363281 128.769531 41.039062 129.09375 C 40.71875 129.417969 40.429688 129.769531 40.175781 130.148438 C 39.921875 130.527344 39.707031 130.929688 39.53125 131.351562 C 39.355469 131.773438 39.222656 132.210938 39.132812 132.660156 C 39.046875 133.105469 39 133.558594 39 134.015625 C 39 134.472656 39.046875 134.925781 39.132812 135.375 C 39.222656 135.824219 39.355469 136.257812 39.53125 136.679688 C 39.707031 137.105469 39.921875 137.503906 40.175781 137.886719 C 40.429688 138.265625 40.71875 138.617188 41.039062 138.941406 C 41.363281 139.261719 41.714844 139.550781 42.09375 139.804688 C 42.476562 140.058594 42.875 140.273438 43.296875 140.449219 C 43.722656 140.625 44.15625 140.757812 44.605469 140.84375 C 45.054688 140.933594 45.507812 140.980469 45.964844 140.980469 L 72.777344 140.980469 Z M 72.777344 162.710938 L 45.964844 162.710938 C 45.5 162.699219 45.039062 162.734375 44.582031 162.816406 C 44.128906 162.898438 43.683594 163.023438 43.253906 163.195312 C 42.820312 163.367188 42.410156 163.578125 42.023438 163.828125 C 41.632812 164.082031 41.273438 164.371094 40.941406 164.695312 C 40.613281 165.019531 40.316406 165.371094 40.054688 165.753906 C 39.792969 166.136719 39.574219 166.542969 39.394531 166.972656 C 39.214844 167.398438 39.078125 167.839844 38.988281 168.292969 C 38.894531 168.746094 38.851562 169.207031 38.851562 169.671875 C 38.851562 170.132812 38.894531 170.59375 38.988281 171.046875 C 39.078125 171.5 39.214844 171.941406 39.394531 172.371094 C 39.574219 172.796875 39.792969 173.203125 40.054688 173.585938 C 40.316406 173.96875 40.613281 174.320312 40.941406 174.644531 C 41.273438 174.96875 41.632812 175.257812 42.023438 175.511719 C 42.410156 175.761719 42.820312 175.976562 43.253906 176.144531 C 43.683594 176.316406 44.128906 176.441406 44.582031 176.523438 C 45.039062 176.605469 45.5 176.640625 45.964844 176.628906 L 72.777344 176.628906 Z M 72.777344 198.359375 L 45.964844 198.359375 C 45.5 198.351562 45.039062 198.386719 44.582031 198.46875 C 44.128906 198.550781 43.683594 198.675781 43.253906 198.847656 C 42.820312 199.015625 42.410156 199.230469 42.023438 199.480469 C 41.632812 199.734375 41.273438 200.023438 40.941406 200.347656 C 40.613281 200.667969 40.316406 201.023438 40.054688 201.40625 C 39.792969 201.789062 39.574219 202.195312 39.394531 202.621094 C 39.214844 203.050781 39.078125 203.492188 38.988281 203.945312 C 38.894531 204.398438 38.851562 204.859375 38.851562 205.320312 C 38.851562 205.785156 38.894531 206.246094 38.988281 206.699219 C 39.078125 207.152344 39.214844 207.59375 39.394531 208.019531 C 39.574219 208.449219 39.792969 208.855469 40.054688 209.238281 C 40.316406 209.621094 40.613281 209.972656 40.941406 210.296875 C 41.273438 210.621094 41.632812 210.910156 42.023438 211.164062 C 42.410156 211.414062 42.820312 211.625 43.253906 211.796875 C 43.683594 211.96875 44.128906 212.09375 44.582031 212.175781 C 45.039062 212.257812 45.5 212.292969 45.964844 212.28125 L 72.777344 212.28125 Z M 72.777344 234.011719 L 45.964844 234.011719 C 45.507812 234.011719 45.054688 234.058594 44.605469 234.148438 C 44.160156 234.238281 43.722656 234.371094 43.300781 234.546875 C 42.878906 234.722656 42.480469 234.9375 42.101562 235.191406 C 41.71875 235.445312 41.367188 235.734375 41.046875 236.054688 C 40.722656 236.378906 40.433594 236.730469 40.183594 237.109375 C 39.929688 237.488281 39.714844 237.890625 39.539062 238.3125 C 39.363281 238.734375 39.234375 239.171875 39.144531 239.617188 C 39.054688 240.066406 39.011719 240.519531 39.011719 240.976562 C 39.011719 241.433594 39.054688 241.882812 39.144531 242.332031 C 39.234375 242.78125 39.363281 243.214844 39.539062 243.636719 C 39.714844 244.058594 39.929688 244.460938 40.183594 244.839844 C 40.433594 245.21875 40.722656 245.570312 41.046875 245.894531 C 41.367188 246.21875 41.71875 246.507812 42.101562 246.761719 C 42.480469 247.015625 42.878906 247.230469 43.300781 247.40625 C 43.722656 247.582031 44.160156 247.710938 44.605469 247.800781 C 45.054688 247.890625 45.507812 247.9375 45.964844 247.9375 L 72.777344 247.9375 Z M 127.0625 301.683594 L 127.0625 328.496094 C 127.050781 328.960938 127.085938 329.421875 127.167969 329.878906 C 127.25 330.332031 127.378906 330.777344 127.546875 331.207031 C 127.71875 331.640625 127.929688 332.050781 128.179688 332.4375 C 128.433594 332.828125 128.722656 333.1875 129.046875 333.519531 C 129.371094 333.847656 129.722656 334.144531 130.105469 334.40625 C 130.492188 334.667969 130.894531 334.886719 131.324219 335.066406 C 131.75 335.246094 132.191406 335.382812 132.644531 335.472656 C 133.101562 335.566406 133.558594 335.609375 134.023438 335.609375 C 134.484375 335.609375 134.945312 335.566406 135.398438 335.472656 C 135.855469 335.382812 136.292969 335.246094 136.722656 335.066406 C 137.148438 334.886719 137.554688 334.667969 137.9375 334.40625 C 138.320312 334.144531 138.675781 333.847656 139 333.519531 C 139.324219 333.1875 139.609375 332.828125 139.863281 332.4375 C 140.117188 332.050781 140.328125 331.640625 140.496094 331.207031 C 140.667969 330.777344 140.792969 330.332031 140.875 329.878906 C 140.957031 329.421875 140.992188 328.960938 140.984375 328.496094 L 140.984375 301.683594 Z M 162.714844 301.683594 L 162.714844 328.496094 C 162.703125 328.960938 162.738281 329.421875 162.820312 329.878906 C 162.902344 330.332031 163.027344 330.777344 163.199219 331.207031 C 163.371094 331.640625 163.582031 332.050781 163.832031 332.4375 C 164.085938 332.828125 164.375 333.1875 164.699219 333.519531 C 165.023438 333.847656 165.375 334.144531 165.757812 334.40625 C 166.140625 334.667969 166.546875 334.886719 166.976562 335.066406 C 167.402344 335.246094 167.84375 335.382812 168.296875 335.472656 C 168.75 335.566406 169.210938 335.609375 169.675781 335.609375 C 170.136719 335.609375 170.597656 335.566406 171.050781 335.472656 C 171.503906 335.382812 171.945312 335.246094 172.375 335.066406 C 172.800781 334.886719 173.207031 334.667969 173.589844 334.40625 C 173.972656 334.144531 174.324219 333.847656 174.648438 333.519531 C 174.972656 333.1875 175.261719 332.828125 175.515625 332.4375 C 175.765625 332.050781 175.980469 331.640625 176.148438 331.207031 C 176.320312 330.777344 176.445312 330.332031 176.527344 329.878906 C 176.609375 329.421875 176.644531 328.960938 176.632812 328.496094 L 176.632812 301.683594 Z M 198.363281 301.683594 L 198.363281 328.496094 C 198.355469 328.960938 198.390625 329.421875 198.472656 329.878906 C 198.554688 330.332031 198.679688 330.777344 198.851562 331.207031 C 199.019531 331.640625 199.234375 332.050781 199.484375 332.4375 C 199.738281 332.828125 200.027344 333.1875 200.351562 333.519531 C 200.675781 333.847656 201.027344 334.144531 201.410156 334.40625 C 201.792969 334.667969 202.199219 334.886719 202.625 335.066406 C 203.054688 335.246094 203.496094 335.382812 203.949219 335.472656 C 204.402344 335.566406 204.863281 335.609375 205.324219 335.609375 C 205.789062 335.609375 206.25 335.566406 206.703125 335.472656 C 207.15625 335.382812 207.597656 335.246094 208.023438 335.066406 C 208.453125 334.886719 208.859375 334.667969 209.242188 334.40625 C 209.625 334.144531 209.976562 333.847656 210.300781 333.519531 C 210.625 333.1875 210.914062 332.828125 211.167969 332.4375 C 211.417969 332.050781 211.628906 331.640625 211.800781 331.207031 C 211.972656 330.777344 212.097656 330.332031 212.179688 329.878906 C 212.261719 329.421875 212.296875 328.960938 212.285156 328.496094 L 212.285156 301.683594 Z M 234.015625 301.683594 L 234.015625 328.496094 C 234.007812 328.960938 234.042969 329.421875 234.125 329.878906 C 234.207031 330.332031 234.332031 330.777344 234.503906 331.207031 C 234.671875 331.640625 234.882812 332.050781 235.136719 332.4375 C 235.390625 332.828125 235.675781 333.1875 236 333.519531 C 236.324219 333.851562 236.679688 334.144531 237.0625 334.40625 C 237.445312 334.667969 237.851562 334.886719 238.277344 335.066406 C 238.707031 335.246094 239.144531 335.382812 239.601562 335.472656 C 240.054688 335.566406 240.515625 335.613281 240.976562 335.613281 C 241.441406 335.613281 241.898438 335.566406 242.355469 335.472656 C 242.808594 335.382812 243.25 335.246094 243.675781 335.066406 C 244.105469 334.886719 244.507812 334.667969 244.894531 334.40625 C 245.277344 334.144531 245.628906 333.851562 245.953125 333.519531 C 246.277344 333.1875 246.566406 332.828125 246.820312 332.4375 C 247.070312 332.050781 247.28125 331.640625 247.453125 331.207031 C 247.621094 330.777344 247.75 330.332031 247.832031 329.878906 C 247.914062 329.421875 247.949219 328.960938 247.9375 328.496094 L 247.9375 301.683594 Z M 127.0625 73.308594 L 140.984375 73.308594 L 140.984375 46.496094 C 140.992188 46.03125 140.957031 45.570312 140.875 45.113281 C 140.792969 44.660156 140.667969 44.214844 140.496094 43.785156 C 140.328125 43.351562 140.117188 42.941406 139.863281 42.554688 C 139.609375 42.164062 139.324219 41.804688 139 41.472656 C 138.675781 41.144531 138.320312 40.847656 137.9375 40.585938 C 137.554688 40.324219 137.148438 40.105469 136.722656 39.925781 C 136.292969 39.746094 135.851562 39.609375 135.398438 39.519531 C 134.945312 39.425781 134.484375 39.382812 134.023438 39.382812 C 133.558594 39.382812 133.101562 39.425781 132.644531 39.519531 C 132.191406 39.609375 131.75 39.746094 131.324219 39.925781 C 130.894531 40.105469 130.492188 40.324219 130.105469 40.585938 C 129.722656 40.847656 129.371094 41.144531 129.046875 41.472656 C 128.722656 41.804688 128.433594 42.164062 128.179688 42.554688 C 127.929688 42.941406 127.71875 43.351562 127.546875 43.785156 C 127.378906 44.214844 127.25 44.660156 127.167969 45.113281 C 127.085938 45.570312 127.050781 46.03125 127.0625 46.496094 Z M 162.714844 46.496094 L 162.714844 73.308594 L 176.632812 73.308594 L 176.632812 46.496094 C 176.644531 46.03125 176.609375 45.570312 176.527344 45.113281 C 176.445312 44.660156 176.320312 44.214844 176.148438 43.785156 C 175.980469 43.351562 175.765625 42.941406 175.515625 42.554688 C 175.261719 42.164062 174.972656 41.804688 174.648438 41.472656 C 174.324219 41.140625 173.972656 40.847656 173.589844 40.585938 C 173.207031 40.324219 172.800781 40.105469 172.375 39.925781 C 171.945312 39.746094 171.503906 39.609375 171.050781 39.519531 C 170.597656 39.425781 170.136719 39.382812 169.675781 39.382812 C 169.210938 39.382812 168.75 39.425781 168.296875 39.519531 C 167.84375 39.609375 167.402344 39.746094 166.976562 39.925781 C 166.546875 40.105469 166.140625 40.324219 165.757812 40.585938 C 165.375 40.847656 165.023438 41.140625 164.699219 41.472656 C 164.375 41.804688 164.085938 42.164062 163.832031 42.554688 C 163.582031 42.941406 163.371094 43.351562 163.199219 43.785156 C 163.027344 44.214844 162.902344 44.660156 162.820312 45.113281 C 162.738281 45.570312 162.703125 46.03125 162.714844 46.496094 Z M 198.363281 46.496094 L 198.363281 73.308594 L 212.285156 73.308594 L 212.285156 46.496094 C 212.296875 46.03125 212.261719 45.570312 212.179688 45.113281 C 212.097656 44.660156 211.972656 44.214844 211.800781 43.785156 C 211.628906 43.351562 211.417969 42.941406 211.167969 42.554688 C 210.914062 42.164062 210.625 41.804688 210.300781 41.472656 C 209.976562 41.140625 209.625 40.847656 209.242188 40.585938 C 208.859375 40.324219 208.453125 40.105469 208.023438 39.925781 C 207.597656 39.746094 207.15625 39.609375 206.703125 39.519531 C 206.25 39.425781 205.789062 39.382812 205.324219 39.382812 C 204.863281 39.382812 204.402344 39.425781 203.949219 39.519531 C 203.496094 39.609375 203.054688 39.746094 202.625 39.925781 C 202.199219 40.105469 201.792969 40.324219 201.410156 40.585938 C 201.027344 40.847656 200.671875 41.140625 200.351562 41.472656 C 200.027344 41.804688 199.738281 42.164062 199.484375 42.554688 C 199.234375 42.941406 199.019531 43.351562 198.851562 43.785156 C 198.679688 44.214844 198.554688 44.660156 198.472656 45.113281 C 198.390625 45.570312 198.355469 46.03125 198.363281 46.496094 Z M 234.015625 46.496094 L 234.015625 73.308594 L 247.9375 73.308594 L 247.9375 46.496094 C 247.949219 46.03125 247.914062 45.570312 247.832031 45.113281 C 247.75 44.660156 247.621094 44.214844 247.453125 43.785156 C 247.28125 43.351562 247.070312 42.941406 246.820312 42.554688 C 246.566406 42.164062 246.277344 41.804688 245.953125 41.472656 C 245.628906 41.140625 245.277344 40.847656 244.894531 40.585938 C 244.507812 40.324219 244.105469 40.105469 243.675781 39.925781 C 243.25 39.746094 242.808594 39.609375 242.355469 39.519531 C 241.898438 39.425781 241.441406 39.382812 240.976562 39.382812 C 240.515625 39.382812 240.054688 39.425781 239.601562 39.519531 C 239.144531 39.609375 238.707031 39.746094 238.277344 39.925781 C 237.851562 40.105469 237.445312 40.324219 237.0625 40.585938 C 236.679688 40.847656 236.324219 41.140625 236 41.472656 C 235.675781 41.804688 235.390625 42.164062 235.136719 42.554688 C 234.882812 42.941406 234.671875 43.351562 234.503906 43.785156 C 234.332031 44.214844 234.207031 44.660156 234.125 45.113281 C 234.042969 45.570312 234.007812 46.03125 234.015625 46.496094 Z M 234.015625 46.496094 " fill-opacity="1" fill-rule="evenodd"/></g></svg>